<?xml version="1.0" encoding="UTF-8"?>
<svg id="Capa_1" data-name="Capa 1" xmlns="http://www.w3.org/2000/svg" viewBox="0 0 3234.89 1507.85">
  <g>
    <path d="m105.47,347.26h121.52l75.32,199.17,34.55-199.17h59.4l-53.97,307.87h-132.39l-68.72-181.31-31.06,181.31h-57.85l53.19-307.87Z"/>
    <path d="m618.71,655.14h-104.44l3.11-17.08c-11.65,7.38-23.36,12.91-35.14,16.6-11.78,3.69-23.23,5.53-34.36,5.53-9.32,0-18.25-1.63-26.79-4.86-8.54-3.25-16.31-8.37-23.29-15.38-2.85-3.12-5.38-6.42-7.57-9.93-2.2-3.51-3.95-7.6-5.24-12.27-1.3-4.67-1.94-9.21-1.94-13.63,0-3.63.13-6.49.39-8.57.25-2.07,1.23-5.77,2.91-11.1,1.68-5.32,6.02-12.65,13.01-22,6.99-9.35,18.11-16.49,33.39-21.42,15.27-4.93,31.96-7.4,50.08-7.4h16.31c7.76,0,12.94-.19,15.53-.58,2.58-.39,6.41-1.36,11.45-2.91,5.05-1.55,9.51-4.98,13.39-10.29,3.88-5.3,5.82-9.77,5.82-13.39l-2.33-7.76c-1.55-3.36-4.79-5.82-9.71-7.38-4.92-1.55-9.32-2.33-13.2-2.33-5.18,0-9.45.65-12.81,1.94-3.63.78-7.64,3.24-12.04,7.38-4.14,3.37-8.03,9.58-11.65,18.64h-69.49c6.21-16.31,12.87-28.4,19.99-36.3,7.12-7.89,16.37-13.84,27.76-17.86,11.39-4.01,21.48-6.6,30.28-7.77,8.8-1.16,15.34-1.87,19.61-2.14,4.27-.25,10.8-.39,19.61-.39,10.35,0,20.06.39,29.12,1.17,9.06.78,17.99,2.07,26.79,3.88,16.56,3.11,28.27,8.15,35.14,15.14,6.85,6.99,11.71,13.2,14.56,18.64,2.85,5.44,4.27,12.17,4.27,20.19,0,2.33-.13,5.31-.39,8.93-.26,3.63-.78,7.64-1.55,12.04l-5.05,31.84-15.53,90.85Zm-93.18-91.24l-26.01,8.93c-8.03,3.88-12.81,10.48-14.36,19.8-.26,2.07-.39,3.63-.39,4.66,0,4.92,1.81,8.93,5.44,12.04,3.62,3.11,7.89,4.66,12.81,4.66l7.38-1.16c2.85-.78,5.63-2.39,8.35-4.85,2.72-2.46,4.46-4.72,5.24-6.79l6.6-39.21-5.05,1.94Z"/>
    <path d="m747.64,386.47h50.83l-12.08,70.27h30.73s-6.55,40.4-6.55,40.4h-31.11s-14.76,85.79-14.76,85.79l-1.55,13.98c0,7.25,2,11.71,6.02,13.39,4.01,1.69,11.32,2.52,21.94,2.52l-6.99,42.32h-50.86c-10.62,0-21.55-1.16-32.81-3.49s-19.02-6.34-23.29-12.04c-4.27-5.69-7.18-10.74-8.74-15.14l-1.55-14.36c0-2.07.13-4.66.39-7.76.25-3.11.78-6.6,1.55-10.48l2.72-17.08,12.81-77.65h-22.82s7.76-44.64,7.76-44.64c16.29,0,30.2-4.08,41.71-12.23,11.51-8.15,21.4-21.04,29.68-38.64l6.98-15.14Z"/>
    <path d="m835.31,456.75h95.37l-21.38,123.81-.57,9.33c0,5.45.84,9.79,2.52,13.02,1.68,3.24,5.24,5.51,10.68,6.8,7.5.78,13.26-1.17,17.28-5.82,4.01-4.66,6.79-11,8.35-19.02l22.13-128.12h95.12l-34.17,198.39h-95.12l6.21-33.78c-9.32,12.03-20.52,21.5-33.58,28.43-13.07,6.93-31.64,10.39-55.71,10.39-8.03,0-15.01-1.23-20.96-3.69-5.96-2.46-10.94-6.87-14.95-13.22-4.02-6.35-6.02-15.1-6.02-26.26v-7.78c0-2.59.25-5.57.78-8.95l3.49-22.95,20.55-120.58Z"/>
    <path d="m1100.9,456.75h95.51l-6.99,41.15c8.54-12.42,18.83-21.8,30.86-28.15,12.04-6.34,25.95-10.68,41.74-13.01l-17.47,100.94c-1.3-4.66-4.27-9.57-8.93-14.75-4.66-5.17-9.32-8.28-13.98-9.32l-11.65-1.55-8.54,1.17c-2.59.52-5.89,2.27-9.9,5.24-4.02,2.98-6.99,6.93-8.93,11.84-1.94,4.92-3.69,11.13-5.24,18.64l-15.14,86.19h-95.51l34.17-198.39Z"/>
    <path d="m1499.23,655.14h-104.44l3.11-17.08c-11.65,7.38-23.36,12.91-35.14,16.6-11.78,3.69-23.23,5.53-34.36,5.53-9.32,0-18.25-1.63-26.79-4.86-8.54-3.25-16.31-8.37-23.29-15.38-2.85-3.12-5.38-6.42-7.57-9.93-2.2-3.51-3.95-7.6-5.24-12.27-1.3-4.67-1.94-9.21-1.94-13.63,0-3.63.13-6.49.39-8.57.25-2.07,1.23-5.77,2.91-11.1,1.68-5.32,6.02-12.65,13.01-22,6.99-9.35,18.11-16.49,33.39-21.42,15.27-4.93,31.96-7.4,50.08-7.4h16.31c7.76,0,12.94-.19,15.53-.58,2.58-.39,6.41-1.36,11.45-2.91,5.05-1.55,9.51-4.98,13.39-10.29,3.88-5.3,5.82-9.77,5.82-13.39l-2.33-7.76c-1.55-3.36-4.79-5.82-9.71-7.38-4.92-1.55-9.32-2.33-13.2-2.33-5.18,0-9.45.65-12.81,1.94-3.63.78-7.64,3.24-12.04,7.38-4.14,3.37-8.03,9.58-11.65,18.64h-69.49c6.21-16.31,12.87-28.4,19.99-36.3,7.12-7.89,16.37-13.84,27.76-17.86,11.39-4.01,21.48-6.6,30.28-7.77,8.8-1.16,15.34-1.87,19.61-2.14,4.27-.25,10.8-.39,19.61-.39,10.35,0,20.06.39,29.12,1.17,9.06.78,17.99,2.07,26.79,3.88,16.56,3.11,28.27,8.15,35.14,15.14,6.85,6.99,11.71,13.2,14.56,18.64,2.85,5.44,4.27,12.17,4.27,20.19,0,2.33-.13,5.31-.39,8.93-.26,3.63-.78,7.64-1.55,12.04l-5.05,31.84-15.53,90.85Zm-93.18-91.24l-26.01,8.93c-8.03,3.88-12.81,10.48-14.36,19.8-.26,2.07-.39,3.63-.39,4.66,0,4.92,1.81,8.93,5.44,12.04,3.62,3.11,7.89,4.66,12.81,4.66l7.38-1.16c2.85-.78,5.63-2.39,8.35-4.85,2.72-2.46,4.46-4.72,5.24-6.79l6.6-39.21-5.05,1.94Z"/>
    <path d="m1685.58,352.7l-52.03,302.44h-95.12l52.02-302.44h95.12Z"/>
  </g>
  <g>
    <path d="m1236.7,982.2v-14.19h56.31v-273.75h-56.31v-14.19h178.53v17.4h-64.09v162.05l161.09-129.55c11.02-8.96,16.52-16.38,16.52-22.26,0-4.94-2.65-8.42-7.94-10.43-5.29-2.01-15.41-3.02-30.35-3.02h-8.4v-14.19h151.07v14.19h-1.83c-18.62,0-35.02,2.78-49.21,8.35-14.19,5.56-30.13,15.45-47.83,29.66l-77.5,63.48,166.27,172.26h45.8v14.19h-183.11v-14.19h54.48l-130.03-135.98-59.03,46.29v89.7h64.09v14.19h-178.53Z"/>
    <path d="m1942.58,927.73h10.99v3.18c0,18.16-4.31,31.25-12.93,39.27-8.62,8.03-22.16,12.03-40.62,12.03-15.7,0-27.17-2.26-34.4-6.78-7.24-4.52-13.62-12.95-19.15-25.31l-1.39-4.07-2.27,2.29c-18.83,17.1-34.93,28.54-48.29,34.33-13.36,5.79-30.98,8.7-52.84,8.7-25.51,0-46.16-5.04-61.96-15.11-15.79-10.07-23.69-23.8-23.69-41.2,0-16.48,5.97-29.6,17.9-39.37,11.93-9.76,32.12-16.94,60.58-21.52l63.78-10.53c10.09-1.83,20.41-5.04,30.97-9.61,10.56-4.58,15.84-14.03,15.84-28.38,0-12.2-2.37-21.59-7.12-28.15-4.75-6.56-13.78-11.9-27.1-16.02-13.32-4.12-26.86-6.18-40.63-6.18-9.18,0-17.53.47-25.03,1.4-7.5.93-15.08,2.64-22.72,5.13-14.08,4.36-24.18,10.26-30.3,17.73h9.61c7.32,0,13.8,2.37,19.46,7.1,5.64,4.73,8.47,11.06,8.47,19,0,7.02-3.21,13.58-9.61,19.68-6.41,5.49-13.89,8.24-22.43,8.24-9.46,0-17.32-2.83-23.57-8.51-6.26-5.67-9.38-12.95-9.38-21.85,0-18.1,11.21-32.82,33.65-44.17,22.43-11.34,51.34-17.02,86.75-17.02,75.99,0,113.98,27.71,113.98,83.13v84.95c0,12.79,1.52,22.08,4.58,27.87,3.05,5.79,8.08,8.68,15.11,8.68,15.86,0,23.8-12.97,23.8-38.91Zm-97.51-73.24c-6.71,5.49-14.5,10.07-23.35,13.73-3.97,1.53-10.3,3.43-19,5.72-8.7,2.29-19,4.81-30.9,7.55-24.11,5.49-39.91,13.81-47.38,24.95-7.48,11.14-11.21,21.59-11.21,31.36,0,11.9,4.42,21.82,13.28,29.75,9.16,7.32,21.06,10.99,35.71,10.99,20.44,0,38.22-5.87,53.33-17.62,15.11-11.74,24.95-27.39,29.53-46.92v-59.51Z"/>
    <path d="m1943.5,770.71h142.37v14.19h-53.1l73.15,138.08,79.75-160.96h11.43l88.69,165.01,53.49-108.81,3.72-8.21.6-8.37c0-6.19-1.99-10.69-5.95-13.48-4.28-2.17-12.82-3.25-25.63-3.25h-8.24v-14.19h88.81v14.19c-9.16,0-16.02,2.18-20.6,6.53-4.28,3.42-8.55,9.48-12.82,18.19l-6.38,12.37-86.09,167.07h-8.7l-90.64-161.59-80.57,161.59h-10.07l-108.95-204.17h-23.8l-.46-14.19Z"/>
    <path d="m2589.88,770.71h10.99v73.24h-10.53c-.92-2.73-1.99-5.83-3.21-9.32-1.22-3.49-3.2-7.5-5.95-12.05-2.75-5.46-10-14.93-21.74-28.42-11.75-13.49-37.16-20.24-76.22-20.24-20.76,0-37.62,3.2-50.58,9.61-12.97,6.41-19.46,15.26-19.46,26.55s5.95,20.45,17.85,26.55c11.9,5.49,34.03,8.24,66.38,8.24,28.99,0,52.19,3.74,69.58,11.22,17.39,7.48,29.9,17.1,37.54,28.84,7.62,11.75,11.44,22.97,11.44,33.65,0,21.36-9.77,38.68-29.3,51.96-19.54,13.28-44.86,19.91-75.99,19.91-19.23,0-34.64-1.37-46.24-4.12-10.99-3.05-26.55-9.61-46.69-19.68l-5.04-2.75-15.56,18.31h-10.99v-79.19l9.16-.46,1.83,4.58c7.32,19.23,16.02,33.88,26.09,43.95,9.16,8.85,21.89,15.87,38.22,21.06,16.32,5.19,32.27,7.78,47.84,7.78,23.19,0,41.2-3.35,54.02-10.07,12.82-6.71,19.22-16.02,19.22-27.92,0-19.83-10.69-31.59-32.04-35.25l-43.03-6.41-19.23-1.37c-26.25,0-47.08-3.28-62.49-9.84-15.41-6.56-26.63-15.34-33.65-26.32-6.71-11.59-10.07-22.58-10.07-32.96,0-20.75,9.08-37.23,27.24-49.44,18.15-12.2,42.19-18.31,72.1-18.31s60.88,8.09,92.01,24.26l16.48-15.56Z"/>
    <path d="m2912.6,927.73h10.99v3.18c0,18.16-4.31,31.25-12.93,39.27-8.62,8.03-22.16,12.03-40.62,12.03-15.7,0-27.17-2.26-34.4-6.78-7.24-4.52-13.62-12.95-19.15-25.31l-1.39-4.07-2.27,2.29c-18.83,17.1-34.93,28.54-48.29,34.33-13.36,5.79-30.98,8.7-52.84,8.7-25.51,0-46.16-5.04-61.96-15.11-15.79-10.07-23.69-23.8-23.69-41.2,0-16.48,5.97-29.6,17.9-39.37,11.93-9.76,32.12-16.94,60.58-21.52l63.78-10.53c10.09-1.83,20.41-5.04,30.97-9.61,10.56-4.58,15.84-14.03,15.84-28.38,0-12.2-2.37-21.59-7.12-28.15-4.75-6.56-13.78-11.9-27.1-16.02-13.32-4.12-26.86-6.18-40.63-6.18-9.18,0-17.53.47-25.03,1.4-7.5.93-15.08,2.64-22.72,5.13-14.08,4.36-24.18,10.26-30.3,17.73h9.61c7.32,0,13.8,2.37,19.46,7.1,5.64,4.73,8.47,11.06,8.47,19,0,7.02-3.21,13.58-9.61,19.68-6.41,5.49-13.89,8.24-22.43,8.24-9.46,0-17.32-2.83-23.57-8.51-6.26-5.67-9.38-12.95-9.38-21.85,0-18.1,11.21-32.82,33.65-44.17,22.43-11.34,51.34-17.02,86.75-17.02,75.99,0,113.98,27.71,113.98,83.13v84.95c0,12.79,1.52,22.08,4.58,27.87,3.05,5.79,8.08,8.68,15.11,8.68,15.86,0,23.8-12.97,23.8-38.91Zm-97.51-73.24c-6.71,5.49-14.5,10.07-23.35,13.73-3.97,1.53-10.3,3.43-19,5.72-8.7,2.29-19,4.81-30.9,7.55-24.11,5.49-39.91,13.81-47.38,24.95-7.48,11.14-11.21,21.59-11.21,31.36,0,11.9,4.42,21.82,13.28,29.75,9.16,7.32,21.06,10.99,35.71,10.99,20.44,0,38.22-5.87,53.33-17.62,15.11-11.74,24.95-27.39,29.53-46.92v-59.51Z"/>
    <path d="m2910.31,770.71h139.16v14.19h-45.32l80.32,148.77,57.61-108.41,1.97-6.57,3.38-13.42c0-13.58-12.21-20.36-36.62-20.36h-3.2v-14.19h92.93v14.19c-8.55,0-15.11,1.71-19.69,5.13-4.58,3.42-9.77,10.11-15.56,20.05l-111.7,208.29-2.75,4.58c-20.14,40.28-46.39,60.43-78.74,60.43-16.18,0-29.68-5.04-40.51-15.11-10.84-10.07-16.25-22.89-16.25-38.45,0-11.29,2.82-20.07,8.47-26.32,5.64-6.26,13.5-9.38,23.58-9.38,8.85,0,16.48,3.05,22.89,9.16,6.41,6.1,9.61,13.58,9.61,22.43,0,21.67-12.52,32.5-37.54,32.5,2.44,5.19,5.64,8.62,9.61,10.3,3.96,1.67,10.53,2.52,19.69,2.52,25.94,0,47.76-16.06,65.46-48.18l15.11-28.73h1.37l-116.73-207.83h-26.55v-15.56Z"/>
  </g>
  <g>
    <path d="m2013.17,314.99c19.42,30.02,38.53,58.07,56.09,87.05,25.71,42.43,16,100.17-22.05,128.32-9.85,7.29-18.04,16.46-27.84,27.32,2.42-45.37-2.68-88.07-6.09-130.97-3.94,42.8-8.52,85.49-6.36,131.3-13.24-16.63-29.18-26.64-41.34-40.37-26.45-29.85-30.89-76.92-9.54-113.67,17.39-29.93,37.34-58.37,57.13-88.98Z"/>
    <path d="m2010.04,577.65v82.56c1.41.03,2.82.06,4.23.1,2.8-26.99,3.63-54.13,3.37-82.22,21.74,2.77,42.22,6.98,60.23,18.75,19.21,12.55,24.68,29.51,16.83,50.97-4.18,11.42-10.93,21.22-20.41,28.99-17.89,14.68-36.07,29.03-53.57,44.16-6.06,5.24-9.71,4.55-15.39-.32-17.28-14.81-35.41-28.62-52.59-43.53-16.74-14.52-27.72-32.11-23.06-55.62,2.81-14.17,13.3-22.16,25.18-28.45,16.52-8.75,34.54-12.37,55.2-15.38Z"/>
    <path d="m2232.29,552.94c-18.54-7.65-37.29-7.41-56.16-1.9-21.39,6.25-42.86,7.59-68.22,1.26,27.97-5.29,46.21-21.95,66.53-34.89,23.79-15.15,48.34-15.94,73.91-5.1,27.75,11.76,50.43,30.55,74.36,52-37.43,5.96-66.1,27.01-97.64,41.54-35.77,16.48-69.79,15.15-103.76-4.71-21.84-12.77-42.9-27.28-71.14-34.53,33.6-5.78,63.67,3.34,93.71.54,29.72-2.77,58.04-14.63,88.41-14.21Z"/>
    <path d="m1703.15,564.35c29.71-25.08,56.32-49.01,92.88-57.46,17.97-4.15,34.46-1.35,50.09,7.49,9.04,5.12,17.72,10.93,26.23,16.9,13,9.12,26.63,16.82,45.29,20.87-24.61,6.73-45.83,5.14-66.96-1.03-18.95-5.53-37.76-5.74-56.5,1.63,30.47.13,59,11.72,88.93,14.42,29.94,2.7,59.87-6.19,92.77-.75-28.43,7.82-50.38,22.88-73.22,36.12-37.91,21.99-74.92,17.66-112.25-1.71-27.19-14.11-53.19-31.17-87.26-36.48Z"/>
    <path d="m2207.04,347.67c26.5,56.98,13.85,109.72-34.29,146.36-29.87,22.73-64.45,35.24-102.59,46.73,40.65-35.79,76.96-71.69,103.96-115.83-12.71,12.56-23.83,26.55-36.72,38.91-13.03,12.5-26.4,24.56-42.63,34.31,9.27-25.34,1.1-51.71,6.3-77.14,3.78-18.5,16.06-29.04,32.73-35.8,25.27-10.25,51.84-17.93,73.24-37.54Z"/>
    <path d="m1819.38,347.76c20.97,19.16,46.79,26.67,71.24,36.87,26.47,11.03,36.09,25.23,36.56,54.01.33,20.58-3.15,41.55,8.17,63.55-33.27-22.96-58.86-49.34-82.55-79.47,4.35,20.88,35.58,56.37,100.98,115.85-42.75-3.55-109.8-43.61-132.48-79.29-20.77-32.67-20.12-67.28-1.92-111.51Z"/>
    <path d="m2091.67,402.73c1-23.19,6.33-43.15,11.27-63.24-13.09,15.54-15.25,35.16-20.24,55.5-8.56-12.5-15.99-23.58-23.69-34.47-2.31-3.27-2.42-5.99-.58-9.52,13.64-26.2,33.7-45.55,60.58-57.93,5.05-2.32,7.5-1.1,9.67,3.85,6.55,14.96,10.94,30.41,11.16,46.8.22,16-1.79,30.27-20.75,36.09-10.72,3.29-18.04,12.66-27.42,22.92Z"/>
    <path d="m1943.57,394.85c-4.63-20.67-7.61-39.72-19.91-55.41,4.45,19.95,9.84,39.7,10.9,63.27-12.04-14.64-25.09-23.94-40.58-29.65-4.28-1.58-4.53-6.24-5.3-9.73-5.14-23.52-.31-45.74,9.43-67.28,2.15-4.75,4.92-4.85,9.14-2.94,26.95,12.23,47,31.6,60.59,57.82,1.54,2.97,2.28,5.6.21,8.57-7.8,11.19-15.54,22.43-24.48,35.34Z"/>
  </g>
</svg>